<svg xmlns="http://www.w3.org/2000/svg" xmlns:xlink="http://www.w3.org/1999/xlink" contentStyleType="text/css" height="524px" preserveAspectRatio="none" style="width:471px;height:524px;background:#FFFFFF;" version="1.1" viewBox="0 0 471 524" width="471px" zoomAndPan="magnify"><title>Factory Design Pattern</title><defs/><g><text fill="#000000" font-family="sans-serif" font-size="14" font-weight="bold" lengthAdjust="spacing" textLength="164.2197" x="146.5166" y="23.5352">Factory Design Pattern</text><!--class Pizza--><g id="elem_Pizza"><rect codeLine="5" fill="#F1F1F1" height="64.4883" id="Pizza" rx="2.5" ry="2.5" style="stroke:#181818;stroke-width:0.5;" width="138.2529" x="146" y="185.9783"/><ellipse cx="193.0928" cy="201.9783" fill="#B4A7E5" rx="11" ry="11" style="stroke:#181818;stroke-width:1.0;"/><path d="M189.0205,197.7434 L189.0205,195.5852 L196.3999,195.5852 L196.3999,197.7434 L193.9346,197.7434 L193.9346,205.8201 L196.3999,205.8201 L196.3999,207.9783 L189.0205,207.9783 L189.0205,205.8201 L191.4858,205.8201 L191.4858,197.7434 Z " fill="#000000"/><text fill="#000000" font-family="sans-serif" font-size="14" font-style="italic" lengthAdjust="spacing" textLength="35.5674" x="213.5928" y="207.2693">Pizza</text><line style="stroke:#181818;stroke-width:0.5;" x1="147" x2="283.2529" y1="217.9783" y2="217.9783"/><line style="stroke:#181818;stroke-width:0.5;" x1="147" x2="283.2529" y1="225.9783" y2="225.9783"/><ellipse cx="157" cy="239.7224" fill="#84BE84" rx="3" ry="3" style="stroke:#038048;stroke-width:1.0;"/><text fill="#000000" font-family="sans-serif" font-size="14" lengthAdjust="spacing" textLength="112.2529" x="166" y="243.5134">prepare(): object</text></g><!--class CheesePizza--><g id="elem_CheesePizza"><rect codeLine="9" fill="#F1F1F1" height="64.4883" id="CheesePizza" rx="2.5" ry="2.5" style="stroke:#181818;stroke-width:0.5;" width="138.2529" x="7" y="327.4583"/><ellipse cx="31.7985" cy="343.4583" fill="#ADD1B2" rx="11" ry="11" style="stroke:#181818;stroke-width:1.0;"/><path d="M34.7716,349.1013 Q34.1906,349.4002 33.5514,349.5496 Q32.9123,349.699 32.2067,349.699 Q29.6999,349.699 28.38,348.0471 Q27.0602,346.3953 27.0602,343.2742 Q27.0602,340.1448 28.38,338.4929 Q29.6999,336.8411 32.2067,336.8411 Q32.9123,336.8411 33.5597,336.9905 Q34.2072,337.1399 34.7716,337.4387 L34.7716,340.1614 Q34.1408,339.5804 33.5473,339.3106 Q32.9538,339.0408 32.3229,339.0408 Q30.9782,339.0408 30.2934,340.1075 Q29.6085,341.1741 29.6085,343.2742 Q29.6085,345.366 30.2934,346.4326 Q30.9782,347.4993 32.3229,347.4993 Q32.9538,347.4993 33.5473,347.2295 Q34.1408,346.9597 34.7716,346.3787 Z " fill="#000000"/><text fill="#000000" font-family="sans-serif" font-size="14" lengthAdjust="spacing" textLength="84.4785" x="47.9759" y="348.7493">CheesePizza</text><line style="stroke:#181818;stroke-width:0.5;" x1="8" x2="144.2529" y1="359.4583" y2="359.4583"/><line style="stroke:#181818;stroke-width:0.5;" x1="8" x2="144.2529" y1="367.4583" y2="367.4583"/><ellipse cx="18" cy="381.2024" fill="#84BE84" rx="3" ry="3" style="stroke:#038048;stroke-width:1.0;"/><text fill="#000000" font-family="sans-serif" font-size="14" lengthAdjust="spacing" textLength="112.2529" x="27" y="384.9934">prepare(): object</text></g><!--class PepperoniPizza--><g id="elem_PepperoniPizza"><rect codeLine="13" fill="#F1F1F1" height="64.4883" id="PepperoniPizza" rx="2.5" ry="2.5" style="stroke:#181818;stroke-width:0.5;" width="138.2529" x="146" y="452.9483"/><ellipse cx="162.1975" cy="468.9483" fill="#ADD1B2" rx="11" ry="11" style="stroke:#181818;stroke-width:1.0;"/><path d="M165.1707,474.5913 Q164.5896,474.8902 163.9504,475.0396 Q163.3113,475.189 162.6057,475.189 Q160.0989,475.189 158.7791,473.5371 Q157.4592,471.8853 157.4592,468.7642 Q157.4592,465.6348 158.7791,463.9829 Q160.0989,462.3311 162.6057,462.3311 Q163.3113,462.3311 163.9587,462.4805 Q164.6062,462.6299 165.1707,462.9288 L165.1707,465.6514 Q164.5398,465.0704 163.9463,464.8006 Q163.3528,464.5308 162.7219,464.5308 Q161.3772,464.5308 160.6924,465.5975 Q160.0076,466.6641 160.0076,468.7642 Q160.0076,470.856 160.6924,471.9226 Q161.3772,472.9893 162.7219,472.9893 Q163.3528,472.9893 163.9463,472.7195 Q164.5398,472.4497 165.1707,471.8687 Z " fill="#000000"/><text fill="#000000" font-family="sans-serif" font-size="14" lengthAdjust="spacing" textLength="103.5918" x="176.4636" y="474.2393">PepperoniPizza</text><line style="stroke:#181818;stroke-width:0.5;" x1="147" x2="283.2529" y1="484.9483" y2="484.9483"/><line style="stroke:#181818;stroke-width:0.5;" x1="147" x2="283.2529" y1="492.9483" y2="492.9483"/><ellipse cx="157" cy="506.6924" fill="#84BE84" rx="3" ry="3" style="stroke:#038048;stroke-width:1.0;"/><text fill="#000000" font-family="sans-serif" font-size="14" lengthAdjust="spacing" textLength="112.2529" x="166" y="510.4834">prepare(): object</text></g><!--class VeggiePizza--><g id="elem_VeggiePizza"><rect codeLine="17" fill="#F1F1F1" height="64.4883" id="VeggiePizza" rx="2.5" ry="2.5" style="stroke:#181818;stroke-width:0.5;" width="138.2529" x="326" y="327.4583"/><ellipse cx="351.992" cy="343.4583" fill="#ADD1B2" rx="11" ry="11" style="stroke:#181818;stroke-width:1.0;"/><path d="M354.9652,349.1013 Q354.3841,349.4002 353.745,349.5496 Q353.1058,349.699 352.4002,349.699 Q349.8934,349.699 348.5736,348.0471 Q347.2538,346.3953 347.2538,343.2742 Q347.2538,340.1448 348.5736,338.4929 Q349.8934,336.8411 352.4002,336.8411 Q353.1058,336.8411 353.7533,336.9905 Q354.4007,337.1399 354.9652,337.4387 L354.9652,340.1614 Q354.3343,339.5804 353.7408,339.3106 Q353.1473,339.0408 352.5165,339.0408 Q351.1717,339.0408 350.4869,340.1075 Q349.8021,341.1741 349.8021,343.2742 Q349.8021,345.366 350.4869,346.4326 Q351.1717,347.4993 352.5165,347.4993 Q353.1473,347.4993 353.7408,347.2295 Q354.3343,346.9597 354.9652,346.3787 Z " fill="#000000"/><text fill="#000000" font-family="sans-serif" font-size="14" lengthAdjust="spacing" textLength="81.8262" x="368.4347" y="348.7493">VeggiePizza</text><line style="stroke:#181818;stroke-width:0.5;" x1="327" x2="463.2529" y1="359.4583" y2="359.4583"/><line style="stroke:#181818;stroke-width:0.5;" x1="327" x2="463.2529" y1="367.4583" y2="367.4583"/><ellipse cx="337" cy="381.2024" fill="#84BE84" rx="3" ry="3" style="stroke:#038048;stroke-width:1.0;"/><text fill="#000000" font-family="sans-serif" font-size="14" lengthAdjust="spacing" textLength="112.2529" x="346" y="384.9934">prepare(): object</text></g><!--class PizzaFactory--><g id="elem_PizzaFactory"><rect codeLine="25" fill="#F1F1F1" height="64.4883" id="PizzaFactory" rx="2.5" ry="2.5" style="stroke:#181818;stroke-width:0.5;" width="234.5576" x="97.85" y="44.4883"/><ellipse cx="168.4516" cy="60.4883" fill="#ADD1B2" rx="11" ry="11" style="stroke:#181818;stroke-width:1.0;"/><path d="M171.4247,66.1313 Q170.8437,66.4302 170.2045,66.5796 Q169.5653,66.729 168.8598,66.729 Q166.3529,66.729 165.0331,65.0771 Q163.7133,63.4253 163.7133,60.3042 Q163.7133,57.1748 165.0331,55.5229 Q166.3529,53.8711 168.8598,53.8711 Q169.5653,53.8711 170.2128,54.0205 Q170.8603,54.1699 171.4247,54.4688 L171.4247,57.1914 Q170.7938,56.6104 170.2003,56.3406 Q169.6068,56.0708 168.976,56.0708 Q167.6313,56.0708 166.9464,57.1375 Q166.2616,58.2041 166.2616,60.3042 Q166.2616,62.396 166.9464,63.4626 Q167.6313,64.5293 168.976,64.5293 Q169.6068,64.5293 170.2003,64.2595 Q170.7938,63.9897 171.4247,63.4087 Z " fill="#000000"/><text fill="#000000" font-family="sans-serif" font-size="14" lengthAdjust="spacing" textLength="84.8545" x="188.9516" y="65.7793">PizzaFactory</text><line style="stroke:#181818;stroke-width:0.5;" x1="98.85" x2="331.4076" y1="76.4883" y2="76.4883"/><line style="stroke:#181818;stroke-width:0.5;" x1="98.85" x2="331.4076" y1="84.4883" y2="84.4883"/><ellipse cx="108.85" cy="98.2324" fill="#84BE84" rx="3" ry="3" style="stroke:#038048;stroke-width:1.0;"/><text fill="#000000" font-family="sans-serif" font-size="14" lengthAdjust="spacing" textLength="208.5576" x="117.85" y="102.0234">createPizza(type: String): Pizza</text></g><!--reverse link Pizza to CheesePizza--><g id="link_Pizza_CheesePizza"><path codeLine="21" d="M134.148,260.5738 C121.068,268.9238 123.39,269.1283 113.13,280.4583 C101.02,293.8283 92.14,311.8583 86.11,327.2383 " fill="none" id="Pizza-backto-CheesePizza" style="stroke:#181818;stroke-width:1.0;stroke-dasharray:7.0,7.0;"/><polygon fill="none" points="149.32,250.8883,130.9195,255.5164,137.3765,265.6311,149.32,250.8883" style="stroke:#181818;stroke-width:1.0;"/><text fill="#000000" font-family="sans-serif" font-size="13" lengthAdjust="spacing" textLength="74.0137" x="114.13" y="294.0266">implements</text></g><!--reverse link Pizza to PepperoniPizza--><g id="link_Pizza_PepperoniPizza"><path codeLine="22" d="M215.13,268.9183 C215.13,319.8783 215.13,401.4683 215.13,452.4583 " fill="none" id="Pizza-backto-PepperoniPizza" style="stroke:#181818;stroke-width:1.0;stroke-dasharray:7.0,7.0;"/><polygon fill="none" points="215.13,250.9183,209.13,268.9183,221.13,268.9183,215.13,250.9183" style="stroke:#181818;stroke-width:1.0;"/><text fill="#000000" font-family="sans-serif" font-size="13" lengthAdjust="spacing" textLength="74.0137" x="216.13" y="364.7766">implements</text></g><!--reverse link Pizza to VeggiePizza--><g id="link_Pizza_VeggiePizza"><path codeLine="23" d="M270.1978,261.8941 C299.6578,284.7241 325.02,304.3783 354.44,327.1783 " fill="none" id="Pizza-backto-VeggiePizza" style="stroke:#181818;stroke-width:1.0;stroke-dasharray:7.0,7.0;"/><polygon fill="none" points="255.97,250.8683,266.5225,266.6367,273.8731,257.1515,255.97,250.8683" style="stroke:#181818;stroke-width:1.0;"/><text fill="#000000" font-family="sans-serif" font-size="13" lengthAdjust="spacing" textLength="74.0137" x="316.9" y="294.0266">implements</text></g><!--link PizzaFactory to Pizza--><g id="link_PizzaFactory_Pizza"><path codeLine="29" d="M215.13,109.3783 C215.13,132.2083 215.13,156.8883 215.13,179.6883 " fill="none" id="PizzaFactory-to-Pizza" style="stroke:#181818;stroke-width:1.0;"/><polygon fill="#181818" points="215.13,185.6883,219.13,176.6883,215.13,180.6883,211.13,176.6883,215.13,185.6883" style="stroke:#181818;stroke-width:1.0;"/><text fill="#000000" font-family="sans-serif" font-size="13" lengthAdjust="spacing" textLength="45.1318" x="216.13" y="152.5466">creates</text></g><!--SRC=[ZP312i8m38RlVOeSbL4VO8WNnVD0y5xBxwniNMbpsQRlRjseR8BCd4Bo_ScViE4AT5IQ6z_I0S6KbWh536-54CR6vAeqg31TfwWN52Dp7avvhDOvDPSxD8kd4BfI8T3-1WJyInTm3hwnPX0iysUKfS4YFAxVFZPovYSdKxiADIo72IE_RFpYfjldJBhctKc_x4McFHIF_8fRXvnEx8qjezUX-B6QD5BkA8qVnN7s62y0]--></g></svg>